<mxfile host="app.diagrams.net" modified="2023-08-20T11:30:18.805Z" agent="Mozilla/5.0 (Windows NT 10.0; Win64; x64) AppleWebKit/537.36 (KHTML, like Gecko) Chrome/109.0.0.0 Safari/537.36" version="21.6.8" etag="_p6nWAV7odjOyfF6nsRh" type="github">
  <diagram name="PÃ¡gina-1" id="WYZqYrelXxDbd0AlqR-N">
    <mxGraphModel>
      <root>
        <mxCell id="0" />
        <mxCell id="1" parent="0" />
      </root>
    </mxGraphModel>
  </diagram>
</mxfile>
